<?xml version="1.0" encoding="utf-8"?>
<!-- Generator: Adobe Illustrator 14.0.0, SVG Export Plug-In . SVG Version: 6.00 Build 43363)  -->
<!DOCTYPE svg PUBLIC "-//W3C//DTD SVG 1.1//EN" "http://www.w3.org/Graphics/SVG/1.1/DTD/svg11.dtd">
<svg version="1.1" id="图层_1" xmlns="http://www.w3.org/2000/svg" xmlns:xlink="http://www.w3.org/1999/xlink" x="0px" y="0px"
	 width="41.19px" height="66px" viewBox="0 0 41.19 66" enable-background="new 0 0 41.19 66" xml:space="preserve">
<path fill="#E64340" d="M20.595,0C9.222,0,0,9.237,0,20.625C0,41.25,20.595,66,20.595,66S41.19,41.25,41.19,20.625
	C41.19,9.237,31.969,0,20.595,0z M20.595,33.26c-6.965,0-12.616-5.656-12.616-12.635S13.626,7.99,20.595,7.99
	c6.97,0,12.617,5.656,12.617,12.635S27.561,33.26,20.595,33.26z M12.616,20.625c-0.1,4.415,3.391,8.072,7.8,8.174
	c4.407,0.101,8.062-3.396,8.162-7.812c0.002-0.12,0.002-0.241,0-0.362c0.101-4.415-3.392-8.072-7.8-8.173
	c-4.406-0.102-8.061,3.396-8.162,7.811C12.614,20.383,12.614,20.504,12.616,20.625z"/>
</svg>
