<?xml version="1.0" encoding="utf-8"?>
<!-- Generator: Adobe Illustrator 14.0.0, SVG Export Plug-In . SVG Version: 6.00 Build 43363)  -->
<!DOCTYPE svg PUBLIC "-//W3C//DTD SVG 1.1//EN" "http://www.w3.org/Graphics/SVG/1.1/DTD/svg11.dtd">
<svg version="1.1" id="图层_1" xmlns="http://www.w3.org/2000/svg" xmlns:xlink="http://www.w3.org/1999/xlink" x="0px" y="0px"
	 width="30px" height="24px" viewBox="0 0 30 24" enable-background="new 0 0 30 24" xml:space="preserve">
<g>
	<g>
		<path fill="#FFFFFF" d="M22.536,11.555c-0.423-0.126-0.712-0.211-0.491-0.759c0.479-1.19,0.529-2.217,0.01-2.949
			c-0.975-1.374-3.64-1.3-6.694-0.037c0-0.002-0.959,0.414-0.714-0.337c0.47-1.491,0.399-2.741-0.332-3.462
			c-1.658-1.638-6.064,0.063-9.843,3.792C1.643,10.598,0,13.56,0,16.121C0,21.02,6.362,24,12.586,24
			c8.159,0,13.586-4.683,13.586-8.397C26.172,13.355,24.257,12.081,22.536,11.555z M12.603,22.244
			c-4.966,0.482-9.253-1.734-9.576-4.953c-0.323-3.221,3.443-6.223,8.409-6.708c4.966-0.485,9.253,1.732,9.576,4.952
			C21.334,18.755,17.57,21.757,12.603,22.244z M27.955,2.589c-1.971-2.157-4.877-2.979-7.561-2.417l0,0
			c-0.621,0.132-1.018,0.734-0.883,1.347c0.131,0.612,0.742,1.004,1.362,0.873c1.909-0.4,3.974,0.185,5.375,1.718
			c1.399,1.532,1.78,3.622,1.181,5.454l0,0c-0.195,0.598,0.135,1.236,0.739,1.429c0.603,0.192,1.25-0.134,1.446-0.729v-0.005
			C30.457,7.682,29.926,4.744,27.955,2.589z M24.491,9.651c0.521,0.164,1.077-0.115,1.245-0.629c0.41-1.256,0.154-2.687-0.807-3.737
			c-0.959-1.051-2.375-1.449-3.683-1.175c-0.534,0.112-0.875,0.631-0.761,1.159c0.115,0.526,0.641,0.864,1.173,0.749V6.02
			c0.639-0.133,1.332,0.062,1.801,0.574c0.47,0.514,0.597,1.214,0.394,1.828h0.002C23.688,8.935,23.971,9.485,24.491,9.651z
			 M13.099,13.062c-2.364-0.607-5.035,0.557-6.062,2.611c-1.045,2.098-0.034,4.426,2.354,5.187c2.473,0.788,5.389-0.419,6.402-2.683
			C16.793,15.964,15.545,13.686,13.099,13.062z M11.294,18.417c-0.48,0.756-1.509,1.088-2.284,0.738
			c-0.764-0.344-0.989-1.223-0.508-1.96c0.474-0.735,1.469-1.063,2.237-0.743C11.518,16.779,11.766,17.652,11.294,18.417z
			 M12.877,16.412c-0.174,0.293-0.558,0.435-0.859,0.313c-0.295-0.12-0.388-0.448-0.22-0.736c0.173-0.287,0.542-0.427,0.837-0.313
			C12.935,15.785,13.042,16.117,12.877,16.412z"/>
	</g>
</g>
</svg>
