<?xml version="1.0" encoding="utf-8"?>
<!-- Generator: Adobe Illustrator 14.0.0, SVG Export Plug-In . SVG Version: 6.00 Build 43363)  -->
<!DOCTYPE svg PUBLIC "-//W3C//DTD SVG 1.1//EN" "http://www.w3.org/Graphics/SVG/1.1/DTD/svg11.dtd">
<svg version="1.1" id="图层_1" xmlns="http://www.w3.org/2000/svg" xmlns:xlink="http://www.w3.org/1999/xlink" x="0px" y="0px"
	 width="30.001px" height="24.999px" viewBox="0 0 30.001 24.999" enable-background="new 0 0 30.001 24.999" xml:space="preserve">
<path fill-rule="evenodd" clip-rule="evenodd" fill="#FFFFFF" d="M9.18,0.083C9.634,0.03,10.098,0.002,10.567,0h0.108
	c0.471,0.002,0.936,0.03,1.394,0.083c0.185,0.022,0.368,0.048,0.551,0.078c0.144,0.023,0.287,0.049,0.429,0.077
	c0.121,0.023,0.241,0.05,0.36,0.077c0.106,0.024,0.213,0.05,0.317,0.077c0.096,0.024,0.19,0.051,0.285,0.077
	c0.087,0.024,0.174,0.051,0.261,0.077c0.081,0.025,0.161,0.051,0.241,0.077c0.076,0.025,0.151,0.051,0.227,0.077
	c0.071,0.025,0.142,0.051,0.212,0.077c0.067,0.025,0.134,0.052,0.201,0.078c0.063,0.024,0.127,0.051,0.19,0.077
	c0.061,0.025,0.121,0.051,0.182,0.077c0.059,0.025,0.116,0.051,0.174,0.077c0.057,0.025,0.112,0.051,0.168,0.077
	c0.053,0.025,0.106,0.051,0.159,0.077c0.052,0.025,0.103,0.052,0.153,0.077c0.05,0.025,0.1,0.052,0.149,0.077
	c0.048,0.025,0.096,0.052,0.144,0.077c0.047,0.025,0.093,0.052,0.139,0.078c0.045,0.025,0.09,0.051,0.134,0.077
	c0.044,0.025,0.088,0.051,0.131,0.077c0.043,0.025,0.085,0.051,0.127,0.077c0.041,0.025,0.082,0.051,0.122,0.077
	c0.04,0.025,0.08,0.051,0.12,0.077c0.039,0.025,0.077,0.052,0.116,0.077c0.037,0.025,0.075,0.052,0.112,0.077
	c0.037,0.026,0.074,0.052,0.111,0.077c0.035,0.025,0.071,0.052,0.106,0.077c0.035,0.026,0.07,0.052,0.104,0.078
	c0.034,0.025,0.068,0.051,0.103,0.077c0.033,0.025,0.066,0.051,0.099,0.077c0.033,0.025,0.065,0.051,0.098,0.077
	c0.032,0.025,0.063,0.052,0.095,0.077s0.063,0.051,0.094,0.077c0.03,0.025,0.06,0.052,0.09,0.077
	c0.029,0.025,0.06,0.052,0.089,0.077c0.028,0.025,0.057,0.052,0.086,0.077c0.028,0.026,0.057,0.052,0.085,0.078
	c0.027,0.025,0.055,0.051,0.082,0.077c0.027,0.025,0.054,0.051,0.081,0.077c0.026,0.025,0.053,0.051,0.079,0.077
	c0.025,0.025,0.052,0.051,0.077,0.077c0.025,0.025,0.051,0.052,0.076,0.077c0.024,0.025,0.049,0.052,0.073,0.077
	s0.049,0.052,0.073,0.077c0.023,0.026,0.047,0.052,0.07,0.077c0.023,0.026,0.047,0.052,0.069,0.078
	c0.023,0.025,0.046,0.051,0.068,0.077c0.022,0.025,0.044,0.051,0.066,0.077c0.021,0.025,0.044,0.051,0.065,0.077
	c0.021,0.025,0.042,0.052,0.063,0.077c0.021,0.025,0.042,0.051,0.063,0.077c0.021,0.025,0.04,0.052,0.061,0.077
	s0.04,0.052,0.061,0.077c0.02,0.025,0.038,0.052,0.058,0.077c0.02,0.026,0.039,0.052,0.058,0.077
	c0.019,0.026,0.037,0.052,0.056,0.077c0.019,0.026,0.036,0.052,0.055,0.078c0.018,0.025,0.035,0.051,0.054,0.077
	c0.018,0.025,0.034,0.051,0.052,0.077c0.018,0.025,0.034,0.051,0.052,0.077c0.017,0.025,0.033,0.052,0.05,0.077
	c0.016,0.025,0.033,0.052,0.049,0.077c0.017,0.025,0.031,0.052,0.048,0.077c0.016,0.026,0.031,0.052,0.047,0.077
	c0.016,0.026,0.03,0.052,0.045,0.077c0.015,0.026,0.03,0.052,0.045,0.078c0.015,0.025,0.029,0.051,0.043,0.077
	c0.015,0.025,0.028,0.051,0.043,0.077c0.014,0.025,0.028,0.051,0.042,0.077c0.014,0.025,0.026,0.052,0.039,0.077
	c0.014,0.025,0.027,0.052,0.04,0.077s0.025,0.052,0.038,0.077s0.025,0.052,0.038,0.077c0.012,0.026,0.024,0.052,0.036,0.077
	c0.012,0.026,0.023,0.052,0.035,0.078c0.012,0.025,0.023,0.051,0.035,0.077c0.012,0.025,0.022,0.051,0.033,0.077
	c0.011,0.025,0.022,0.051,0.033,0.077c0.011,0.025,0.021,0.051,0.031,0.077c0.011,0.025,0.021,0.052,0.031,0.077
	c0.01,0.025,0.021,0.052,0.03,0.077s0.019,0.052,0.028,0.077c0.01,0.026,0.02,0.052,0.028,0.077c0.01,0.026,0.019,0.052,0.027,0.077
	c0.009,0.026,0.018,0.052,0.026,0.078c0.009,0.025,0.018,0.051,0.026,0.077c0.008,0.025,0.016,0.051,0.024,0.077
	c0.008,0.025,0.016,0.052,0.023,0.077s0.016,0.052,0.023,0.077c0.007,0.025,0.015,0.052,0.021,0.077
	c0.007,0.026,0.015,0.052,0.021,0.077c0.007,0.026,0.014,0.052,0.021,0.077c0.007,0.026,0.013,0.052,0.02,0.077
	c0.006,0.026,0.013,0.052,0.02,0.078c0.006,0.025,0.011,0.051,0.018,0.077c0.005,0.025,0.011,0.051,0.017,0.077
	c0.004,0.017,0.008,0.033,0.012,0.05v0.001c-0.192-0.022-0.385-0.04-0.579-0.051c-0.146-0.009-0.295-0.014-0.443-0.014
	c-0.169,0-0.337,0.005-0.503,0.014c-0.277,0.014-0.551,0.04-0.82,0.077c-0.159,0.021-0.317,0.048-0.475,0.077
	c-0.123,0.023-0.245,0.049-0.366,0.077c-0.105,0.024-0.209,0.05-0.313,0.077c-0.091,0.024-0.182,0.051-0.271,0.077
	c-0.082,0.024-0.164,0.051-0.244,0.077c-0.075,0.025-0.15,0.051-0.225,0.078c-0.069,0.024-0.139,0.05-0.207,0.077
	c-0.065,0.024-0.13,0.051-0.193,0.077c-0.062,0.024-0.122,0.051-0.182,0.077c-0.058,0.025-0.115,0.051-0.173,0.077
	c-0.055,0.025-0.108,0.051-0.163,0.077c-0.052,0.025-0.103,0.051-0.153,0.077c-0.05,0.025-0.099,0.051-0.147,0.077
	c-0.048,0.025-0.096,0.052-0.143,0.077c-0.046,0.025-0.091,0.052-0.137,0.077c-0.043,0.025-0.087,0.052-0.13,0.078
	c-0.042,0.025-0.084,0.051-0.125,0.077c-0.041,0.025-0.082,0.051-0.122,0.077c-0.04,0.025-0.078,0.051-0.117,0.077
	c-0.038,0.025-0.075,0.051-0.113,0.077c-0.037,0.025-0.074,0.051-0.11,0.077c-0.036,0.025-0.07,0.052-0.105,0.077
	s-0.069,0.052-0.104,0.077s-0.067,0.052-0.101,0.077c-0.032,0.025-0.064,0.052-0.097,0.078c-0.032,0.025-0.064,0.051-0.096,0.077
	c-0.03,0.025-0.061,0.051-0.091,0.077c-0.03,0.025-0.061,0.051-0.09,0.077c-0.029,0.025-0.059,0.051-0.087,0.077
	c-0.028,0.025-0.058,0.051-0.085,0.077c-0.028,0.025-0.056,0.052-0.083,0.077s-0.054,0.052-0.081,0.077
	c-0.026,0.026-0.053,0.052-0.078,0.077c-0.026,0.025-0.052,0.052-0.077,0.078c-0.024,0.025-0.05,0.051-0.074,0.077
	c-0.025,0.025-0.049,0.051-0.073,0.077c-0.023,0.025-0.048,0.051-0.071,0.077c-0.023,0.025-0.047,0.051-0.069,0.077
	c-0.022,0.025-0.046,0.051-0.068,0.077c-0.022,0.025-0.044,0.052-0.066,0.077c-0.021,0.025-0.043,0.052-0.064,0.077
	s-0.042,0.052-0.063,0.077c-0.021,0.026-0.041,0.052-0.062,0.077c-0.021,0.026-0.04,0.052-0.061,0.078
	c-0.02,0.025-0.039,0.051-0.059,0.077c-0.02,0.025-0.039,0.051-0.058,0.077c-0.019,0.025-0.037,0.051-0.056,0.077
	c-0.019,0.025-0.038,0.051-0.056,0.077c-0.019,0.025-0.035,0.052-0.054,0.077c-0.018,0.025-0.035,0.052-0.053,0.077
	c-0.017,0.025-0.033,0.052-0.051,0.077c-0.017,0.026-0.033,0.052-0.05,0.077c-0.017,0.026-0.032,0.052-0.049,0.077
	c-0.016,0.026-0.032,0.052-0.048,0.078c-0.016,0.025-0.031,0.051-0.047,0.077c-0.015,0.025-0.029,0.051-0.045,0.077
	c-0.015,0.025-0.03,0.051-0.045,0.077c-0.015,0.025-0.028,0.052-0.042,0.077c-0.015,0.025-0.029,0.052-0.043,0.077
	s-0.027,0.052-0.041,0.077s-0.026,0.052-0.04,0.077c-0.013,0.026-0.026,0.052-0.039,0.077c-0.013,0.026-0.025,0.052-0.038,0.078
	c-0.013,0.025-0.025,0.051-0.037,0.077c-0.013,0.025-0.024,0.051-0.036,0.077c-0.012,0.025-0.023,0.051-0.035,0.077
	c-0.012,0.025-0.023,0.051-0.035,0.077c-0.011,0.025-0.021,0.052-0.032,0.077s-0.022,0.052-0.033,0.077s-0.021,0.052-0.031,0.077
	c-0.01,0.026-0.021,0.052-0.03,0.077c-0.01,0.026-0.021,0.052-0.03,0.077c-0.01,0.026-0.019,0.052-0.028,0.078
	c-0.01,0.025-0.019,0.051-0.028,0.077c-0.009,0.025-0.018,0.051-0.027,0.077c-0.009,0.025-0.017,0.051-0.025,0.077
	c-0.009,0.025-0.018,0.052-0.026,0.077c-0.008,0.025-0.016,0.052-0.023,0.077c-0.009,0.026-0.017,0.052-0.024,0.077
	c-0.008,0.026-0.016,0.052-0.022,0.077c-0.008,0.026-0.015,0.052-0.022,0.077c-0.007,0.026-0.015,0.052-0.021,0.078
	c-0.007,0.025-0.014,0.051-0.021,0.077c-0.006,0.025-0.013,0.051-0.02,0.077c-0.006,0.025-0.013,0.051-0.02,0.077
	c-0.006,0.025-0.012,0.052-0.017,0.077c-0.006,0.025-0.013,0.052-0.018,0.077c-0.006,0.025-0.012,0.052-0.018,0.077
	c-0.005,0.025-0.01,0.052-0.015,0.077c-0.006,0.026-0.011,0.052-0.016,0.077c-0.005,0.026-0.01,0.052-0.014,0.078
	c-0.005,0.025-0.01,0.051-0.014,0.077c-0.005,0.025-0.009,0.051-0.014,0.077c-0.004,0.025-0.008,0.051-0.012,0.077
	c-0.003,0.025-0.007,0.051-0.011,0.077c-0.004,0.025-0.008,0.052-0.011,0.077c-0.004,0.025-0.007,0.052-0.01,0.077
	c-0.003,0.026-0.006,0.052-0.009,0.077c-0.003,0.026-0.006,0.052-0.009,0.077c-0.003,0.026-0.005,0.052-0.007,0.077
	c-0.003,0.026-0.005,0.052-0.007,0.078c-0.003,0.025-0.005,0.051-0.007,0.077c-0.002,0.025-0.003,0.051-0.005,0.077
	c-0.002,0.025-0.004,0.051-0.005,0.077c-0.002,0.025-0.003,0.052-0.004,0.077s-0.002,0.052-0.003,0.077
	c-0.001,0.026-0.002,0.052-0.003,0.077s-0.001,0.052-0.002,0.077c0,0.026-0.001,0.052-0.001,0.077c0,0.026-0.001,0.052-0.001,0.078
	v0.008c0,0.022,0,0.046,0,0.069c0.001,0.025,0.001,0.051,0.001,0.077c0.001,0.025,0.002,0.051,0.002,0.077
	c0.001,0.025,0.002,0.052,0.003,0.077s0.002,0.052,0.003,0.077c0.002,0.026,0.003,0.052,0.005,0.077
	c0.001,0.026,0.003,0.052,0.005,0.077c0.001,0.026,0.003,0.052,0.005,0.077c0.003,0.026,0.005,0.052,0.007,0.077
	c0.002,0.026,0.005,0.052,0.007,0.078c0.003,0.025,0.006,0.051,0.008,0.077c0.003,0.025,0.006,0.051,0.009,0.077
	c0.003,0.025,0.007,0.052,0.01,0.077s0.007,0.052,0.01,0.077c0.004,0.025,0.008,0.052,0.012,0.077
	c0.003,0.025,0.007,0.052,0.011,0.077c0.005,0.026,0.009,0.052,0.013,0.077c0.005,0.026,0.009,0.052,0.014,0.077
	c0.004,0.026,0.009,0.052,0.014,0.078c0.005,0.025,0.01,0.051,0.015,0.077c0.005,0.025,0.01,0.051,0.016,0.077
	c0.005,0.025,0.01,0.051,0.016,0.077c0.006,0.025,0.012,0.052,0.017,0.077c0.006,0.025,0.012,0.052,0.018,0.077
	c0.007,0.026,0.013,0.052,0.019,0.077c0.007,0.026,0.013,0.052,0.02,0.077c0.006,0.026,0.013,0.052,0.02,0.077
	c0.007,0.026,0.014,0.052,0.021,0.077c0.007,0.026,0.015,0.052,0.021,0.078l0.013,0.043c-0.179,0.015-0.358,0.026-0.538,0.034
	c-0.15,0.006-0.302,0.01-0.454,0.01c-0.146,0-0.29-0.004-0.432-0.01c-0.298-0.014-0.585-0.041-0.867-0.077
	c-0.173-0.022-0.344-0.049-0.515-0.078c-0.142-0.023-0.283-0.05-0.426-0.077c-0.129-0.024-0.258-0.05-0.389-0.077
	c-0.122-0.024-0.246-0.051-0.372-0.077c-0.121-0.025-0.243-0.051-0.368-0.077c-0.115-0.023-0.232-0.048-0.351-0.072l-0.141,0.072
	l-0.151,0.077l-0.15,0.077l-0.15,0.077l-0.15,0.077l-0.151,0.078l-0.15,0.077l-0.15,0.077l-0.15,0.077l-0.15,0.077l-0.151,0.077
	l-0.15,0.077l-0.15,0.077l-0.15,0.077l-0.151,0.078l-0.15,0.077l-0.15,0.077l-0.15,0.077l-0.151,0.077l-0.15,0.077l-0.15,0.077
	l-0.15,0.077l-0.151,0.077l-0.15,0.077l-0.107,0.056l0.019-0.056l0.024-0.077l0.025-0.077l0.025-0.077l0.025-0.077l0.024-0.077
	l0.025-0.077l0.025-0.077l0.024-0.077l0.025-0.077l0.025-0.078l0.025-0.077l0.024-0.077l0.025-0.077l0.025-0.077l0.024-0.077
	l0.025-0.077l0.025-0.077l0.024-0.077l0.025-0.078l0.025-0.077l0.025-0.077l0.024-0.077l0.025-0.077l0.025-0.077l0.025-0.077
	l0.024-0.077l0.025-0.077l0.025-0.077l0.024-0.078l0.025-0.077l0.025-0.077l0.025-0.077l0.024-0.077l0.025-0.077l0.025-0.077
	l0.024-0.077l0.025-0.077l0.025-0.078l0.024-0.077l0.025-0.077l0.025-0.077l0.015-0.045c-0.015-0.011-0.029-0.021-0.045-0.032
	c-0.035-0.025-0.07-0.052-0.106-0.077c-0.034-0.025-0.069-0.052-0.104-0.077c-0.035-0.025-0.068-0.052-0.103-0.077
	c-0.034-0.026-0.067-0.052-0.101-0.077c-0.033-0.026-0.065-0.052-0.099-0.077c-0.032-0.026-0.064-0.052-0.097-0.078
	c-0.031-0.025-0.063-0.051-0.095-0.077c-0.031-0.025-0.063-0.051-0.094-0.077c-0.03-0.025-0.061-0.051-0.091-0.077
	c-0.03-0.025-0.061-0.052-0.09-0.077s-0.059-0.052-0.088-0.077s-0.059-0.052-0.087-0.077c-0.028-0.026-0.057-0.052-0.085-0.077
	c-0.027-0.026-0.056-0.052-0.083-0.077c-0.027-0.026-0.055-0.052-0.082-0.078c-0.026-0.025-0.053-0.051-0.079-0.077
	c-0.026-0.025-0.053-0.051-0.079-0.077c-0.026-0.025-0.052-0.051-0.077-0.077c-0.025-0.025-0.051-0.052-0.075-0.077
	c-0.025-0.025-0.05-0.052-0.074-0.077s-0.049-0.052-0.073-0.077c-0.023-0.026-0.048-0.052-0.071-0.077
	c-0.023-0.026-0.047-0.052-0.069-0.077c-0.023-0.026-0.046-0.052-0.068-0.077c-0.022-0.026-0.046-0.052-0.067-0.078
	c-0.022-0.025-0.044-0.051-0.066-0.077c-0.021-0.025-0.043-0.051-0.064-0.077c-0.021-0.025-0.042-0.051-0.063-0.077
	c-0.021-0.025-0.042-0.052-0.063-0.077s-0.04-0.052-0.061-0.077c-0.02-0.025-0.039-0.052-0.059-0.077s-0.039-0.052-0.059-0.077
	c-0.02-0.026-0.038-0.052-0.057-0.077c-0.02-0.026-0.037-0.052-0.056-0.078c-0.019-0.025-0.037-0.051-0.055-0.077
	c-0.018-0.025-0.036-0.051-0.054-0.077c-0.018-0.025-0.034-0.051-0.052-0.077c-0.018-0.025-0.034-0.052-0.051-0.077
	s-0.033-0.052-0.05-0.077s-0.033-0.052-0.049-0.077c-0.016-0.026-0.032-0.052-0.048-0.077c-0.016-0.026-0.031-0.052-0.046-0.077
	c-0.016-0.026-0.03-0.052-0.046-0.078c-0.015-0.025-0.029-0.051-0.044-0.077c-0.015-0.025-0.029-0.051-0.043-0.077
	c-0.015-0.025-0.028-0.051-0.042-0.077c-0.014-0.025-0.027-0.052-0.041-0.077s-0.027-0.052-0.04-0.077
	c-0.014-0.025-0.026-0.052-0.039-0.077s-0.025-0.052-0.038-0.077c-0.013-0.026-0.025-0.052-0.037-0.077
	c-0.013-0.026-0.024-0.052-0.036-0.077C0.7,12.495,0.688,12.47,0.677,12.443c-0.011-0.025-0.022-0.051-0.034-0.077
	c-0.011-0.025-0.021-0.051-0.032-0.077c-0.011-0.025-0.021-0.052-0.032-0.077s-0.021-0.052-0.031-0.077s-0.021-0.052-0.03-0.077
	s-0.02-0.052-0.029-0.077c-0.01-0.026-0.019-0.052-0.028-0.077c-0.009-0.026-0.018-0.052-0.027-0.077
	c-0.009-0.026-0.018-0.052-0.026-0.078c-0.009-0.025-0.017-0.051-0.025-0.077c-0.008-0.025-0.017-0.051-0.024-0.077
	c-0.008-0.025-0.017-0.051-0.024-0.077c-0.007-0.025-0.015-0.052-0.022-0.077s-0.015-0.052-0.021-0.077
	c-0.008-0.025-0.015-0.052-0.021-0.077c-0.007-0.026-0.014-0.052-0.021-0.077c-0.007-0.026-0.013-0.052-0.02-0.077
	c-0.006-0.026-0.012-0.052-0.019-0.077c-0.006-0.026-0.012-0.052-0.018-0.078c-0.006-0.025-0.011-0.051-0.017-0.077
	c-0.006-0.025-0.011-0.051-0.017-0.077c-0.005-0.025-0.01-0.052-0.015-0.077s-0.01-0.052-0.015-0.077s-0.01-0.052-0.014-0.077
	c-0.005-0.025-0.009-0.052-0.013-0.077c-0.004-0.026-0.008-0.052-0.012-0.077c-0.004-0.026-0.008-0.052-0.012-0.077
	c-0.003-0.026-0.007-0.052-0.01-0.077c-0.004-0.026-0.007-0.052-0.011-0.078c-0.003-0.025-0.006-0.051-0.008-0.077
	c-0.003-0.025-0.006-0.051-0.009-0.077c-0.003-0.025-0.005-0.052-0.007-0.077C0.03,9.946,0.028,9.92,0.026,9.895
	S0.022,9.843,0.021,9.817S0.017,9.766,0.016,9.74C0.014,9.714,0.012,9.688,0.011,9.663C0.01,9.637,0.009,9.611,0.008,9.586
	C0.006,9.56,0.005,9.534,0.004,9.508c0-0.025-0.001-0.051-0.002-0.077c0-0.025-0.001-0.051-0.001-0.077C0,9.328,0,9.302,0,9.276
	C0,9.264,0,9.25,0,9.237s0-0.025,0-0.038c0-0.025,0.001-0.052,0.001-0.077C0.002,9.096,0.002,9.07,0.003,9.045
	c0-0.026,0.001-0.052,0.002-0.077c0-0.026,0.002-0.052,0.003-0.077C0.009,8.864,0.01,8.839,0.012,8.813
	c0.001-0.025,0.002-0.051,0.003-0.077C0.017,8.71,0.019,8.685,0.021,8.658c0.002-0.025,0.004-0.052,0.006-0.077
	S0.03,8.529,0.032,8.504S0.038,8.452,0.04,8.427C0.043,8.401,0.045,8.375,0.048,8.35s0.005-0.052,0.008-0.077
	C0.06,8.246,0.063,8.221,0.066,8.195c0.003-0.026,0.007-0.052,0.01-0.077C0.08,8.092,0.083,8.066,0.087,8.04
	c0.004-0.025,0.008-0.051,0.012-0.077c0.005-0.025,0.009-0.052,0.013-0.077C0.116,7.86,0.119,7.834,0.124,7.809
	s0.01-0.052,0.015-0.077s0.01-0.052,0.015-0.077s0.01-0.052,0.015-0.077C0.174,7.551,0.18,7.525,0.186,7.5
	C0.19,7.474,0.196,7.448,0.202,7.423C0.208,7.396,0.213,7.371,0.22,7.345c0.006-0.025,0.013-0.051,0.019-0.077
	c0.007-0.025,0.013-0.051,0.02-0.077c0.007-0.025,0.013-0.052,0.02-0.077S0.292,7.062,0.3,7.036
	c0.007-0.025,0.014-0.052,0.021-0.077c0.007-0.025,0.015-0.052,0.022-0.077C0.352,6.855,0.359,6.83,0.367,6.805
	c0.008-0.026,0.016-0.052,0.024-0.077c0.008-0.026,0.017-0.052,0.024-0.078c0.009-0.025,0.018-0.051,0.026-0.077
	C0.451,6.547,0.46,6.521,0.469,6.495c0.01-0.025,0.019-0.051,0.028-0.077c0.01-0.025,0.02-0.052,0.029-0.077
	c0.009-0.025,0.019-0.052,0.028-0.077c0.01-0.026,0.021-0.052,0.031-0.077c0.01-0.026,0.021-0.052,0.031-0.077
	c0.01-0.026,0.021-0.052,0.031-0.077C0.659,6.006,0.671,5.98,0.682,5.955c0.012-0.026,0.022-0.052,0.034-0.078
	C0.728,5.852,0.738,5.826,0.75,5.8c0.012-0.025,0.024-0.051,0.036-0.077c0.013-0.025,0.024-0.052,0.037-0.077
	C0.835,5.62,0.848,5.594,0.86,5.568s0.026-0.052,0.039-0.077c0.014-0.025,0.025-0.052,0.039-0.077
	c0.014-0.026,0.027-0.052,0.041-0.077C0.993,5.311,1.008,5.285,1.021,5.26C1.035,5.233,1.05,5.208,1.063,5.182
	c0.015-0.025,0.029-0.051,0.044-0.077c0.015-0.025,0.029-0.052,0.045-0.077c0.015-0.025,0.03-0.051,0.046-0.077
	c0.016-0.025,0.031-0.052,0.047-0.077s0.031-0.052,0.047-0.077c0.017-0.026,0.033-0.052,0.05-0.077
	c0.017-0.026,0.033-0.052,0.05-0.077C1.409,4.615,1.426,4.59,1.443,4.564c0.018-0.026,0.035-0.052,0.053-0.078
	c0.018-0.025,0.035-0.051,0.053-0.077c0.019-0.025,0.037-0.051,0.056-0.077C1.623,4.307,1.642,4.28,1.66,4.255
	c0.02-0.025,0.038-0.052,0.058-0.077s0.039-0.052,0.059-0.077c0.021-0.025,0.04-0.052,0.06-0.077
	c0.021-0.026,0.041-0.052,0.063-0.077C1.919,3.92,1.938,3.895,1.96,3.869c0.021-0.026,0.043-0.052,0.064-0.077
	C2.046,3.766,2.067,3.74,2.09,3.715c0.022-0.026,0.044-0.052,0.066-0.078C2.18,3.611,2.202,3.586,2.225,3.56
	c0.023-0.025,0.047-0.052,0.07-0.077s0.048-0.052,0.071-0.077C2.391,3.38,2.414,3.354,2.438,3.328
	c0.025-0.026,0.051-0.052,0.075-0.077C2.539,3.225,2.564,3.199,2.59,3.174c0.025-0.026,0.053-0.052,0.078-0.077
	C2.695,3.07,2.721,3.045,2.748,3.02C2.774,2.993,2.803,2.968,2.83,2.941C2.857,2.916,2.885,2.89,2.913,2.864
	s0.058-0.052,0.086-0.077C3.028,2.762,3.057,2.735,3.086,2.71c0.03-0.025,0.061-0.052,0.09-0.077
	c0.03-0.025,0.062-0.052,0.092-0.077C3.299,2.529,3.33,2.504,3.362,2.479c0.031-0.026,0.063-0.052,0.096-0.077
	c0.033-0.026,0.066-0.052,0.1-0.077c0.033-0.026,0.067-0.052,0.101-0.078c0.035-0.025,0.07-0.051,0.104-0.077
	c0.035-0.025,0.07-0.052,0.106-0.077c0.036-0.026,0.073-0.052,0.11-0.077s0.074-0.052,0.112-0.077C4.13,1.911,4.17,1.886,4.208,1.86
	c0.04-0.026,0.08-0.052,0.12-0.077c0.04-0.026,0.081-0.052,0.122-0.077C4.493,1.68,4.535,1.654,4.578,1.629
	c0.043-0.026,0.086-0.053,0.13-0.077C4.753,1.525,4.799,1.5,4.844,1.474c0.047-0.025,0.094-0.052,0.141-0.077
	c0.048-0.025,0.095-0.052,0.144-0.077c0.05-0.026,0.101-0.052,0.151-0.077C5.331,1.216,5.384,1.19,5.436,1.165
	c0.054-0.026,0.108-0.052,0.162-0.077c0.057-0.026,0.113-0.052,0.17-0.077c0.06-0.026,0.119-0.052,0.179-0.077
	c0.063-0.026,0.125-0.053,0.188-0.077C6.198,0.83,6.264,0.804,6.33,0.778c0.069-0.026,0.138-0.052,0.208-0.077
	c0.073-0.026,0.146-0.052,0.221-0.077c0.079-0.026,0.158-0.052,0.237-0.077C7.081,0.521,7.167,0.494,7.253,0.47
	C7.347,0.443,7.44,0.417,7.535,0.393C7.639,0.365,7.743,0.34,7.849,0.315c0.117-0.027,0.235-0.054,0.354-0.077
	C8.344,0.21,8.486,0.185,8.629,0.161C8.811,0.131,8.994,0.105,9.18,0.083L9.18,0.083z M18.054,12.497
	c-0.528,0-1.062,0.545-1.062,1.086c0,0.55,0.533,1.087,1.062,1.087c0.804,0,1.329-0.537,1.329-1.087
	C19.383,13.042,18.857,12.497,18.054,12.497L18.054,12.497z M23.895,12.497c-0.524,0-1.055,0.545-1.055,1.086
	c0,0.55,0.53,1.087,1.055,1.087c0.796,0,1.329-0.537,1.329-1.087C25.224,13.042,24.69,12.497,23.895,12.497L23.895,12.497z
	 M7.169,4.618c-0.796,0-1.6,0.538-1.6,1.354c0,0.815,0.804,1.36,1.6,1.36s1.325-0.545,1.325-1.36
	C8.494,5.156,7.965,4.618,7.169,4.618L7.169,4.618z M14.601,7.333c0.8,0,1.329-0.545,1.329-1.36c0-0.816-0.529-1.354-1.329-1.354
	c-0.796,0-1.595,0.538-1.595,1.354C13.006,6.788,13.805,7.333,14.601,7.333L14.601,7.333z M14.297,10.712
	c0.023-0.022,0.047-0.044,0.069-0.065c0.023-0.022,0.047-0.044,0.07-0.065c0.024-0.022,0.049-0.044,0.073-0.066
	c0.024-0.021,0.049-0.044,0.074-0.065c0.024-0.021,0.051-0.044,0.076-0.065s0.051-0.044,0.077-0.065
	c0.026-0.022,0.054-0.044,0.08-0.065c0.027-0.022,0.054-0.044,0.081-0.066c0.028-0.021,0.057-0.043,0.084-0.065
	c0.029-0.021,0.057-0.044,0.086-0.065c0.029-0.022,0.059-0.044,0.088-0.065c0.03-0.022,0.061-0.044,0.091-0.065
	c0.03-0.022,0.062-0.044,0.093-0.066c0.032-0.021,0.063-0.044,0.096-0.065s0.065-0.044,0.098-0.065
	c0.034-0.022,0.068-0.044,0.102-0.065c0.035-0.022,0.069-0.044,0.104-0.065c0.036-0.022,0.072-0.044,0.108-0.065
	c0.037-0.022,0.073-0.045,0.111-0.066c0.037-0.021,0.075-0.044,0.113-0.065c0.04-0.022,0.08-0.044,0.119-0.065
	c0.041-0.022,0.082-0.044,0.123-0.065c0.042-0.022,0.084-0.044,0.127-0.066c0.044-0.021,0.089-0.044,0.133-0.065
	c0.046-0.021,0.092-0.044,0.139-0.065c0.047-0.022,0.095-0.044,0.143-0.065c0.05-0.022,0.101-0.044,0.151-0.065
	c0.053-0.022,0.105-0.045,0.159-0.066c0.055-0.021,0.11-0.044,0.166-0.065c0.059-0.022,0.118-0.044,0.177-0.065
	c0.063-0.022,0.125-0.044,0.188-0.065c0.066-0.022,0.134-0.045,0.201-0.065c0.072-0.023,0.145-0.045,0.218-0.066
	c0.079-0.022,0.159-0.044,0.239-0.065c0.088-0.022,0.177-0.045,0.266-0.065c0.1-0.023,0.199-0.045,0.301-0.065
	c0.12-0.024,0.241-0.046,0.363-0.065c0.154-0.025,0.311-0.048,0.469-0.065c0.392-0.046,0.792-0.07,1.2-0.071h0.057
	c0.385,0.001,0.767,0.025,1.144,0.071c0.15,0.018,0.301,0.04,0.45,0.065c0.118,0.02,0.235,0.041,0.353,0.065
	c0.098,0.021,0.194,0.042,0.291,0.065c0.087,0.021,0.173,0.043,0.259,0.065c0.079,0.021,0.156,0.043,0.234,0.065
	c0.071,0.021,0.143,0.043,0.214,0.066c0.066,0.021,0.132,0.043,0.198,0.065c0.062,0.021,0.123,0.043,0.185,0.065
	c0.059,0.021,0.116,0.043,0.174,0.065c0.056,0.021,0.11,0.044,0.165,0.065c0.053,0.021,0.105,0.044,0.158,0.066
	c0.05,0.021,0.1,0.043,0.149,0.065c0.048,0.021,0.096,0.043,0.143,0.065c0.046,0.021,0.092,0.044,0.138,0.065
	c0.044,0.021,0.089,0.044,0.133,0.065c0.042,0.022,0.084,0.044,0.127,0.066c0.041,0.021,0.081,0.043,0.122,0.065
	c0.04,0.021,0.08,0.043,0.119,0.065c0.039,0.021,0.077,0.044,0.115,0.065c0.037,0.021,0.074,0.044,0.111,0.066
	c0.036,0.021,0.072,0.043,0.108,0.065c0.035,0.021,0.069,0.043,0.104,0.065c0.035,0.021,0.069,0.043,0.103,0.065
	c0.033,0.021,0.066,0.044,0.099,0.065c0.033,0.021,0.065,0.044,0.097,0.065c0.032,0.022,0.063,0.044,0.095,0.066
	c0.03,0.021,0.061,0.043,0.091,0.065c0.03,0.021,0.061,0.043,0.09,0.065c0.029,0.021,0.058,0.044,0.087,0.065
	c0.028,0.022,0.058,0.044,0.085,0.065c0.028,0.022,0.056,0.044,0.083,0.066c0.027,0.021,0.055,0.043,0.081,0.065
	c0.026,0.021,0.053,0.044,0.079,0.065s0.052,0.044,0.078,0.065c0.025,0.021,0.05,0.044,0.075,0.065
	c0.024,0.022,0.05,0.044,0.074,0.066c0.024,0.021,0.048,0.043,0.071,0.065c0.024,0.021,0.048,0.043,0.071,0.065
	c0.023,0.021,0.046,0.044,0.069,0.065c0.022,0.021,0.045,0.044,0.067,0.065c0.022,0.022,0.045,0.044,0.066,0.065
	c0.021,0.022,0.044,0.044,0.065,0.066c0.021,0.021,0.042,0.043,0.063,0.065c0.021,0.021,0.041,0.044,0.062,0.065
	c0.021,0.022,0.041,0.044,0.062,0.065c0.021,0.022,0.039,0.044,0.06,0.066c0.02,0.021,0.039,0.043,0.059,0.065
	c0.019,0.021,0.038,0.043,0.057,0.065c0.019,0.021,0.037,0.044,0.056,0.065c0.019,0.022,0.037,0.044,0.056,0.065
	c0.018,0.022,0.035,0.044,0.053,0.066c0.018,0.021,0.036,0.043,0.054,0.065c0.017,0.021,0.033,0.043,0.051,0.065
	c0.017,0.021,0.034,0.044,0.051,0.065s0.032,0.044,0.049,0.065c0.017,0.022,0.032,0.044,0.048,0.066
	c0.017,0.021,0.032,0.043,0.048,0.065c0.016,0.021,0.03,0.044,0.046,0.065s0.031,0.044,0.046,0.065s0.029,0.044,0.044,0.065
	c0.015,0.022,0.029,0.044,0.043,0.065c0.015,0.022,0.029,0.044,0.043,0.066c0.014,0.021,0.027,0.044,0.041,0.065
	s0.027,0.044,0.041,0.065s0.026,0.044,0.039,0.065c0.014,0.022,0.026,0.044,0.039,0.065c0.013,0.022,0.026,0.044,0.038,0.066
	c0.013,0.021,0.024,0.043,0.037,0.065c0.012,0.021,0.024,0.044,0.036,0.065s0.023,0.044,0.035,0.065
	c0.012,0.022,0.022,0.044,0.034,0.066c0.012,0.021,0.022,0.043,0.034,0.065c0.011,0.021,0.021,0.043,0.032,0.065
	c0.011,0.021,0.021,0.044,0.032,0.065s0.021,0.044,0.031,0.065c0.011,0.022,0.021,0.044,0.03,0.065
	c0.01,0.022,0.02,0.044,0.029,0.066c0.01,0.021,0.02,0.043,0.029,0.065c0.01,0.021,0.019,0.044,0.027,0.065
	c0.01,0.021,0.019,0.044,0.027,0.065c0.01,0.022,0.019,0.044,0.027,0.065c0.008,0.022,0.017,0.044,0.025,0.066
	c0.008,0.021,0.017,0.043,0.024,0.065c0.009,0.021,0.017,0.044,0.024,0.065s0.016,0.044,0.023,0.065
	c0.008,0.022,0.016,0.044,0.023,0.065c0.007,0.022,0.015,0.044,0.021,0.066c0.007,0.021,0.014,0.043,0.021,0.065
	c0.007,0.021,0.014,0.044,0.021,0.065s0.013,0.044,0.02,0.065c0.007,0.022,0.013,0.044,0.02,0.065
	c0.006,0.022,0.013,0.044,0.019,0.066c0.006,0.021,0.012,0.043,0.018,0.065c0.006,0.021,0.011,0.044,0.017,0.065
	s0.012,0.044,0.017,0.065c0.006,0.021,0.011,0.044,0.016,0.065c0.005,0.022,0.01,0.044,0.015,0.066
	c0.005,0.021,0.01,0.043,0.015,0.065c0.005,0.021,0.009,0.044,0.014,0.065c0.004,0.021,0.009,0.044,0.013,0.065
	c0.004,0.022,0.009,0.044,0.013,0.065c0.004,0.022,0.007,0.044,0.011,0.066c0.004,0.021,0.008,0.043,0.011,0.065
	c0.004,0.021,0.008,0.043,0.011,0.065c0.003,0.021,0.006,0.044,0.009,0.065c0.004,0.022,0.007,0.044,0.01,0.065
	c0.003,0.022,0.006,0.044,0.008,0.066c0.003,0.021,0.005,0.043,0.008,0.065c0.002,0.021,0.005,0.044,0.007,0.065
	s0.004,0.044,0.007,0.065c0.001,0.021,0.003,0.044,0.005,0.065c0.002,0.022,0.003,0.044,0.005,0.066
	c0.001,0.021,0.003,0.043,0.005,0.065c0.001,0.021,0.002,0.044,0.003,0.065s0.002,0.044,0.003,0.065
	c0.001,0.022,0.002,0.044,0.003,0.065c0,0.022,0,0.044,0.001,0.065c0,0.022,0.001,0.044,0.001,0.066v0.019v0.047v0.065v0.011
	c0,0.019,0,0.037-0.001,0.055c0,0.022-0.001,0.044-0.002,0.066c-0.001,0.021-0.002,0.043-0.002,0.065
	c-0.002,0.021-0.003,0.043-0.004,0.065c-0.001,0.021-0.003,0.044-0.004,0.065c-0.002,0.022-0.003,0.044-0.005,0.065
	c-0.002,0.022-0.004,0.044-0.006,0.066c-0.002,0.021-0.004,0.043-0.007,0.065c-0.002,0.021-0.004,0.043-0.007,0.065
	c-0.003,0.021-0.005,0.044-0.008,0.065s-0.006,0.044-0.009,0.065c-0.003,0.022-0.007,0.044-0.01,0.066
	c-0.003,0.021-0.007,0.043-0.01,0.065c-0.004,0.021-0.008,0.044-0.012,0.065s-0.008,0.044-0.012,0.065
	c-0.004,0.022-0.008,0.044-0.013,0.065c-0.004,0.022-0.009,0.044-0.013,0.065c-0.005,0.022-0.01,0.044-0.015,0.066
	c-0.005,0.021-0.01,0.044-0.015,0.065s-0.011,0.044-0.016,0.065c-0.005,0.022-0.011,0.044-0.017,0.065
	c-0.005,0.022-0.012,0.044-0.018,0.065c-0.005,0.022-0.011,0.044-0.018,0.066c-0.006,0.021-0.013,0.043-0.019,0.065
	c-0.007,0.021-0.013,0.044-0.02,0.065c-0.007,0.022-0.014,0.044-0.021,0.065c-0.007,0.022-0.014,0.044-0.021,0.065
	c-0.007,0.022-0.014,0.044-0.021,0.066c-0.008,0.021-0.015,0.043-0.022,0.065c-0.008,0.021-0.016,0.044-0.023,0.065
	s-0.016,0.044-0.024,0.065c-0.008,0.022-0.017,0.044-0.025,0.065c-0.008,0.022-0.017,0.044-0.025,0.066
	c-0.009,0.021-0.018,0.043-0.026,0.065c-0.01,0.021-0.019,0.044-0.028,0.065c-0.009,0.021-0.019,0.044-0.027,0.065
	c-0.01,0.022-0.02,0.044-0.029,0.065c-0.01,0.022-0.02,0.044-0.03,0.066c-0.01,0.021-0.02,0.043-0.03,0.065
	c-0.011,0.021-0.021,0.044-0.031,0.065c-0.011,0.021-0.021,0.044-0.032,0.065c-0.012,0.022-0.022,0.044-0.033,0.065
	c-0.012,0.022-0.023,0.044-0.034,0.066c-0.012,0.021-0.023,0.043-0.035,0.065c-0.012,0.021-0.023,0.044-0.035,0.065
	s-0.024,0.044-0.037,0.065c-0.012,0.022-0.024,0.044-0.037,0.065c-0.012,0.022-0.024,0.044-0.038,0.066
	c-0.013,0.021-0.025,0.043-0.039,0.065c-0.013,0.021-0.025,0.044-0.039,0.065s-0.027,0.044-0.041,0.065
	c-0.014,0.022-0.027,0.044-0.041,0.065c-0.015,0.022-0.028,0.044-0.043,0.065c-0.014,0.022-0.028,0.044-0.043,0.066
	c-0.015,0.021-0.029,0.044-0.044,0.065s-0.029,0.044-0.045,0.065c-0.015,0.022-0.03,0.044-0.046,0.065
	c-0.016,0.022-0.031,0.044-0.047,0.066c-0.016,0.021-0.031,0.043-0.047,0.065c-0.017,0.021-0.032,0.044-0.049,0.065
	s-0.033,0.044-0.05,0.065c-0.017,0.022-0.033,0.044-0.05,0.065c-0.018,0.022-0.034,0.044-0.051,0.066
	c-0.018,0.021-0.035,0.043-0.053,0.065c-0.018,0.021-0.035,0.044-0.053,0.065c-0.019,0.021-0.036,0.044-0.054,0.065
	c-0.019,0.021-0.037,0.044-0.056,0.065c-0.019,0.022-0.037,0.044-0.056,0.066c-0.019,0.021-0.038,0.043-0.057,0.065
	c-0.02,0.021-0.038,0.044-0.058,0.065s-0.039,0.044-0.06,0.065c-0.02,0.022-0.039,0.044-0.06,0.065
	c-0.02,0.022-0.04,0.044-0.061,0.065c-0.021,0.022-0.041,0.044-0.062,0.066c-0.021,0.021-0.042,0.044-0.063,0.065
	c-0.021,0.021-0.043,0.044-0.064,0.065c-0.021,0.022-0.043,0.044-0.064,0.065c-0.021,0.022-0.044,0.044-0.065,0.065
	c-0.022,0.022-0.045,0.044-0.067,0.066c-0.022,0.021-0.045,0.043-0.067,0.065c-0.023,0.021-0.046,0.044-0.069,0.065
	c-0.023,0.022-0.047,0.044-0.07,0.065c-0.023,0.022-0.047,0.044-0.071,0.065c-0.023,0.022-0.048,0.044-0.072,0.066
	c-0.024,0.021-0.049,0.044-0.073,0.065s-0.05,0.044-0.074,0.065c-0.025,0.022-0.051,0.044-0.076,0.065
	c-0.025,0.022-0.051,0.044-0.077,0.065c-0.025,0.022-0.052,0.044-0.078,0.066c-0.026,0.021-0.053,0.044-0.079,0.065
	s-0.054,0.044-0.08,0.065c-0.027,0.022-0.055,0.044-0.082,0.065c-0.027,0.022-0.056,0.044-0.083,0.065
	c-0.028,0.022-0.057,0.044-0.085,0.066l-0.029,0.022l0.013,0.043l0.02,0.065l0.02,0.065l0.019,0.065l0.02,0.066l0.02,0.065
	l0.02,0.065l0.019,0.065l0.02,0.065l0.02,0.065l0.02,0.066l0.02,0.065l0.019,0.065l0.02,0.065l0.02,0.066l0.02,0.065l0.019,0.065
	l0.02,0.065l0.02,0.065l0.02,0.066l0.019,0.065l0.02,0.065l0.02,0.065l0.02,0.065l0.02,0.066l0.019,0.065l0.02,0.065l0.02,0.065
	l0.02,0.065l0.019,0.065l0.02,0.066l0.02,0.065l0.02,0.065l0.02,0.065l0.019,0.065l0.02,0.066l0.02,0.065l0.02,0.065l0.019,0.065
	l0.02,0.065l0.02,0.066l0.014,0.047l-0.083-0.047l-0.117-0.066l-0.117-0.065l-0.117-0.065l-0.117-0.065l-0.117-0.065l-0.117-0.066
	l-0.117-0.065l-0.117-0.065l-0.117-0.065l-0.117-0.065l-0.117-0.066l-0.117-0.065l-0.117-0.065l-0.117-0.065l-0.116-0.065
	l-0.117-0.065l-0.117-0.066l-0.117-0.065l-0.117-0.065l-0.117-0.065l-0.117-0.065l-0.117-0.066l-0.117-0.065l-0.117-0.065
	l-0.019-0.011l-0.04,0.011c-0.086,0.021-0.171,0.044-0.257,0.065c-0.087,0.022-0.174,0.044-0.261,0.065
	c-0.09,0.022-0.179,0.045-0.269,0.066c-0.094,0.022-0.188,0.044-0.282,0.065c-0.101,0.022-0.202,0.045-0.304,0.065
	c-0.113,0.023-0.227,0.045-0.339,0.065c-0.138,0.024-0.274,0.047-0.411,0.065c-0.222,0.031-0.442,0.054-0.664,0.066
	c-0.12,0.006-0.24,0.01-0.359,0.01c-0.157,0-0.313-0.004-0.468-0.01c-0.27-0.012-0.535-0.034-0.798-0.066
	c-0.154-0.019-0.308-0.04-0.46-0.065c-0.12-0.02-0.239-0.042-0.358-0.065c-0.1-0.021-0.199-0.043-0.298-0.065
	c-0.089-0.021-0.177-0.043-0.265-0.065c-0.08-0.021-0.159-0.043-0.238-0.066c-0.072-0.021-0.145-0.043-0.217-0.065
	c-0.067-0.021-0.134-0.043-0.2-0.065c-0.063-0.021-0.125-0.043-0.188-0.065c-0.059-0.021-0.117-0.044-0.176-0.065
	c-0.056-0.021-0.111-0.044-0.166-0.066c-0.054-0.021-0.106-0.043-0.158-0.065c-0.051-0.021-0.102-0.043-0.151-0.065
	c-0.048-0.021-0.096-0.044-0.143-0.065c-0.046-0.021-0.092-0.044-0.138-0.066c-0.044-0.021-0.089-0.043-0.133-0.065
	c-0.042-0.021-0.085-0.043-0.127-0.065c-0.041-0.021-0.081-0.043-0.122-0.065c-0.04-0.021-0.079-0.043-0.119-0.065
	c-0.038-0.021-0.076-0.044-0.114-0.065c-0.036-0.022-0.073-0.044-0.11-0.066c-0.036-0.021-0.072-0.043-0.107-0.065
	c-0.035-0.021-0.069-0.044-0.104-0.065s-0.067-0.044-0.102-0.065c-0.032-0.021-0.065-0.044-0.098-0.065
	c-0.032-0.022-0.063-0.044-0.095-0.066c-0.031-0.021-0.063-0.043-0.094-0.065c-0.03-0.021-0.06-0.043-0.09-0.065
	c-0.029-0.021-0.06-0.044-0.088-0.065c-0.029-0.021-0.058-0.044-0.086-0.065c-0.027-0.022-0.057-0.044-0.084-0.066
	c-0.027-0.021-0.054-0.043-0.081-0.065c-0.026-0.021-0.054-0.043-0.08-0.065c-0.025-0.021-0.051-0.044-0.077-0.065
	c-0.025-0.022-0.051-0.044-0.076-0.065c-0.024-0.022-0.049-0.044-0.073-0.066c-0.024-0.021-0.049-0.043-0.073-0.065
	c-0.023-0.021-0.046-0.043-0.069-0.065c-0.023-0.021-0.047-0.044-0.07-0.065c-0.022-0.021-0.044-0.044-0.066-0.065
	c-0.022-0.022-0.045-0.044-0.066-0.066c-0.021-0.021-0.043-0.043-0.064-0.065c-0.021-0.021-0.042-0.043-0.063-0.065
	c-0.021-0.021-0.041-0.044-0.062-0.065s-0.04-0.044-0.061-0.065c-0.02-0.022-0.04-0.044-0.06-0.066
	c-0.02-0.021-0.038-0.043-0.057-0.065c-0.02-0.021-0.039-0.043-0.058-0.065c-0.019-0.021-0.036-0.044-0.055-0.065
	c-0.019-0.022-0.036-0.044-0.055-0.065c-0.018-0.022-0.035-0.044-0.053-0.065c-0.018-0.022-0.034-0.044-0.052-0.066
	c-0.017-0.021-0.034-0.043-0.051-0.065c-0.017-0.021-0.033-0.044-0.05-0.065c-0.016-0.022-0.032-0.044-0.049-0.065
	c-0.016-0.022-0.031-0.044-0.047-0.065c-0.016-0.022-0.031-0.044-0.047-0.066c-0.015-0.021-0.03-0.043-0.046-0.065
	c-0.015-0.021-0.029-0.044-0.044-0.065c-0.015-0.022-0.029-0.044-0.044-0.065c-0.014-0.022-0.028-0.044-0.042-0.065
	c-0.014-0.022-0.027-0.044-0.042-0.066c-0.014-0.021-0.027-0.043-0.041-0.065c-0.013-0.021-0.025-0.044-0.039-0.065
	c-0.013-0.021-0.026-0.044-0.039-0.065c-0.013-0.022-0.025-0.044-0.038-0.066c-0.012-0.021-0.024-0.043-0.036-0.065
	c-0.013-0.021-0.025-0.043-0.037-0.065c-0.012-0.021-0.023-0.044-0.035-0.065s-0.023-0.044-0.034-0.065
	c-0.012-0.022-0.022-0.044-0.034-0.065c-0.011-0.022-0.021-0.044-0.032-0.066c-0.011-0.021-0.022-0.043-0.033-0.065
	c-0.01-0.021-0.021-0.044-0.03-0.065c-0.011-0.021-0.021-0.044-0.03-0.065c-0.01-0.022-0.021-0.044-0.03-0.065
	c-0.01-0.022-0.02-0.044-0.028-0.066c-0.01-0.021-0.02-0.043-0.028-0.065c-0.01-0.021-0.019-0.044-0.027-0.065
	s-0.018-0.044-0.026-0.065c-0.009-0.022-0.018-0.044-0.026-0.065c-0.009-0.022-0.017-0.044-0.025-0.066
	c-0.008-0.021-0.016-0.043-0.023-0.065c-0.009-0.021-0.017-0.044-0.024-0.065s-0.015-0.044-0.022-0.065
	c-0.008-0.022-0.015-0.044-0.022-0.065c-0.007-0.022-0.015-0.044-0.021-0.066c-0.008-0.021-0.014-0.043-0.021-0.065
	c-0.007-0.021-0.014-0.044-0.021-0.065s-0.014-0.044-0.02-0.065c-0.007-0.021-0.013-0.044-0.019-0.065
	c-0.006-0.022-0.012-0.044-0.018-0.066c-0.006-0.021-0.013-0.043-0.019-0.065c-0.005-0.021-0.011-0.044-0.016-0.065
	c-0.006-0.021-0.011-0.044-0.017-0.065c-0.005-0.022-0.011-0.044-0.016-0.065c-0.005-0.022-0.009-0.044-0.014-0.066
	c-0.005-0.021-0.01-0.043-0.015-0.065c-0.005-0.021-0.009-0.043-0.014-0.065c-0.004-0.021-0.008-0.044-0.012-0.065
	c-0.005-0.022-0.009-0.044-0.013-0.065c-0.004-0.022-0.008-0.044-0.012-0.066c-0.004-0.021-0.007-0.043-0.011-0.065
	c-0.003-0.021-0.007-0.043-0.01-0.065c-0.004-0.021-0.007-0.044-0.01-0.065s-0.006-0.044-0.009-0.065
	c-0.003-0.022-0.006-0.044-0.009-0.065c-0.002-0.022-0.005-0.044-0.008-0.066c-0.002-0.021-0.004-0.044-0.006-0.065
	c-0.003-0.021-0.005-0.044-0.007-0.065c-0.002-0.022-0.005-0.044-0.006-0.065c-0.002-0.022-0.004-0.044-0.005-0.065
	c-0.002-0.022-0.004-0.044-0.005-0.066c-0.002-0.021-0.003-0.043-0.004-0.065c-0.002-0.021-0.002-0.044-0.003-0.065l-0.003-0.065
	c-0.001-0.022-0.002-0.044-0.003-0.065c-0.001-0.022,0-0.044-0.001-0.066l-0.001-0.065c0-0.021-0.001-0.042-0.001-0.063v-0.002
	c0-0.022,0.001-0.044,0.001-0.065c0-0.022,0.001-0.044,0.001-0.066c0.001-0.021,0.001-0.043,0.001-0.065
	c0.001-0.021,0.002-0.043,0.003-0.065c0.001-0.021,0.002-0.044,0.003-0.065s0.001-0.044,0.003-0.065
	c0.001-0.022,0.003-0.044,0.004-0.065c0.002-0.022,0.003-0.044,0.005-0.066c0.002-0.021,0.003-0.044,0.005-0.065
	s0.004-0.044,0.006-0.065s0.005-0.044,0.007-0.065c0.002-0.022,0.004-0.044,0.007-0.065c0.002-0.022,0.005-0.044,0.008-0.066
	c0.003-0.021,0.006-0.043,0.009-0.065c0.003-0.021,0.005-0.044,0.009-0.065c0.003-0.022,0.006-0.044,0.01-0.065
	c0.003-0.022,0.007-0.044,0.01-0.065c0.004-0.022,0.007-0.044,0.011-0.066c0.004-0.021,0.008-0.043,0.012-0.065
	c0.004-0.021,0.008-0.044,0.013-0.065c0.004-0.021,0.008-0.044,0.012-0.065c0.005-0.022,0.01-0.044,0.014-0.065
	c0.005-0.022,0.01-0.044,0.015-0.066c0.005-0.021,0.01-0.044,0.015-0.065s0.01-0.044,0.016-0.065
	c0.005-0.021,0.011-0.044,0.017-0.065c0.005-0.022,0.01-0.044,0.016-0.065c0.006-0.022,0.012-0.044,0.019-0.066
	c0.006-0.021,0.012-0.043,0.018-0.065c0.006-0.021,0.012-0.044,0.019-0.065c0.006-0.021,0.014-0.044,0.02-0.065
	c0.007-0.022,0.014-0.044,0.021-0.065c0.007-0.022,0.014-0.044,0.021-0.066c0.007-0.021,0.015-0.043,0.022-0.065
	c0.007-0.021,0.015-0.044,0.021-0.065c0.008-0.021,0.016-0.044,0.023-0.065c0.008-0.022,0.016-0.044,0.023-0.065
	c0.009-0.022,0.017-0.044,0.024-0.066c0.009-0.021,0.017-0.043,0.025-0.065c0.009-0.021,0.018-0.044,0.026-0.065
	s0.017-0.044,0.026-0.065c0.009-0.022,0.019-0.044,0.027-0.065c0.01-0.022,0.019-0.044,0.028-0.066
	c0.01-0.021,0.019-0.043,0.028-0.065c0.01-0.021,0.021-0.044,0.03-0.065c0.011-0.021,0.021-0.044,0.03-0.065
	c0.011-0.022,0.021-0.044,0.031-0.065c0.011-0.022,0.022-0.044,0.033-0.065c0.011-0.022,0.021-0.044,0.032-0.066
	c0.011-0.021,0.022-0.044,0.034-0.065s0.022-0.044,0.034-0.065c0.012-0.022,0.023-0.044,0.035-0.065
	c0.012-0.022,0.024-0.044,0.037-0.066c0.012-0.021,0.024-0.043,0.037-0.065c0.013-0.021,0.025-0.044,0.038-0.065
	s0.025-0.044,0.039-0.065c0.013-0.021,0.025-0.044,0.039-0.065c0.014-0.022,0.027-0.044,0.041-0.066
	c0.014-0.021,0.028-0.043,0.042-0.065c0.014-0.021,0.028-0.044,0.042-0.065c0.015-0.021,0.029-0.044,0.045-0.065
	c0.015-0.021,0.028-0.044,0.044-0.065c0.015-0.022,0.03-0.044,0.046-0.065c0.016-0.022,0.031-0.044,0.046-0.066
	c0.017-0.021,0.032-0.044,0.048-0.065c0.017-0.021,0.033-0.044,0.049-0.065c0.017-0.022,0.033-0.044,0.05-0.065
	c0.017-0.022,0.034-0.044,0.051-0.065c0.018-0.022,0.034-0.044,0.052-0.066c0.018-0.021,0.036-0.043,0.054-0.065
	c0.018-0.021,0.036-0.044,0.054-0.065c0.019-0.022,0.037-0.044,0.056-0.065c0.019-0.022,0.038-0.044,0.057-0.065
	c0.02-0.022,0.038-0.044,0.058-0.066c0.02-0.021,0.04-0.043,0.06-0.065c0.021-0.021,0.04-0.044,0.061-0.065
	c0.021-0.022,0.041-0.044,0.063-0.065c0.021-0.022,0.042-0.044,0.063-0.066c0.021-0.021,0.043-0.043,0.064-0.065
	c0.022-0.021,0.045-0.044,0.066-0.065C14.252,10.756,14.274,10.733,14.297,10.712L14.297,10.712z"/>
</svg>
